<mxfile host="app.diagrams.net" modified="2024-02-18T11:44:48.211Z" agent="Mozilla/5.0 (Windows NT 10.0; Win64; x64) AppleWebKit/537.36 (KHTML, like Gecko) Chrome/121.0.0.0 Safari/537.36" etag="hkH-hWapKHdi5FLCG4dk" version="23.1.5" type="github">
  <diagram name="Seite-1" id="GvTUHWjstvscWMhDe_kN">
    <mxGraphModel dx="877" dy="475" grid="1" gridSize="10" guides="1" tooltips="1" connect="1" arrows="1" fold="1" page="1" pageScale="1" pageWidth="827" pageHeight="1169" math="0" shadow="0">
      <root>
        <mxCell id="0" />
        <mxCell id="1" parent="0" />
        <mxCell id="gO6VHGq1Go1XwF48rv6a-1" value="Weckvorgang" style="shape=umlFrame;whiteSpace=wrap;html=1;pointerEvents=0;recursiveResize=0;container=1;collapsible=0;width=160;" vertex="1" parent="1">
          <mxGeometry x="40" y="120" width="480" height="280" as="geometry" />
        </mxCell>
        <mxCell id="gO6VHGq1Go1XwF48rv6a-5" value=":Person" style="rounded=0;whiteSpace=wrap;html=1;" vertex="1" parent="gO6VHGq1Go1XwF48rv6a-1">
          <mxGeometry x="40" y="40" width="80" height="40" as="geometry" />
        </mxCell>
        <mxCell id="gO6VHGq1Go1XwF48rv6a-6" value=":Wecker" style="whiteSpace=wrap;html=1;" vertex="1" parent="gO6VHGq1Go1XwF48rv6a-1">
          <mxGeometry x="360" y="40" width="80" height="40" as="geometry" />
        </mxCell>
        <mxCell id="gO6VHGq1Go1XwF48rv6a-2" value="&lt;font style=&quot;font-size: 20px;&quot;&gt;a)&lt;/font&gt;" style="text;html=1;align=center;verticalAlign=middle;resizable=0;points=[];autosize=1;strokeColor=none;fillColor=none;" vertex="1" parent="1">
          <mxGeometry y="40" width="40" height="40" as="geometry" />
        </mxCell>
        <mxCell id="gO6VHGq1Go1XwF48rv6a-3" value="Sequenzdiagramm" style="text;html=1;align=center;verticalAlign=middle;resizable=0;points=[];autosize=1;strokeColor=none;fillColor=none;" vertex="1" parent="1">
          <mxGeometry x="40" y="80" width="120" height="30" as="geometry" />
        </mxCell>
      </root>
    </mxGraphModel>
  </diagram>
</mxfile>
